<svg xmlns="http://www.w3.org/2000/svg" xmlns:xlink="http://www.w3.org/1999/xlink" width="44.524" height="44.524" viewBox="0 0 44.524 44.524">
  <defs>
    <filter id="Rectangle_137" x="0" y="0" width="44.524" height="44.524" filterUnits="userSpaceOnUse">
      <feOffset dy="3" input="SourceAlpha"/>
      <feGaussianBlur stdDeviation="3" result="blur"/>
      <feFlood flood-opacity="0.161"/>
      <feComposite operator="in" in2="blur"/>
      <feComposite in="SourceGraphic"/>
    </filter>
  </defs>
  <g id="Group_223" data-name="Group 223" transform="translate(9 6)">
    <g transform="matrix(1, 0, 0, 1, -9, -6)" filter="url(#Rectangle_137)">
      <rect id="Rectangle_137-2" data-name="Rectangle 137" width="26.524" height="26.524" rx="3" transform="translate(9 6)" fill="#decb8c"/>
    </g>
    <g id="crown" transform="translate(5.658 5.393)">
      <path id="Path_500" data-name="Path 500" d="M14.763,41a.763.763,0,1,0,.763.763A.764.764,0,0,0,14.763,41Zm0,1.017a.254.254,0,1,1,.254-.254A.254.254,0,0,1,14.763,42.017Z" transform="translate(-10.948 -30.827)"/>
      <path id="Path_501" data-name="Path 501" d="M44.763,41a.763.763,0,1,0,.763.763A.764.764,0,0,0,44.763,41Zm0,1.017a.254.254,0,1,1,.254-.254A.254.254,0,0,1,44.763,42.017Z" transform="translate(-33.319 -30.827)"/>
      <path id="Path_502" data-name="Path 502" d="M16.5,9.392a.756.756,0,0,0-.288.057,3.787,3.787,0,0,0,.034-.479V8.8c0-.073-.006-.145-.011-.217a.762.762,0,1,0-.285-1.239,3.692,3.692,0,0,0-.464-.793.761.761,0,1,0-.993-.909,3.67,3.67,0,0,0-.71-.345.755.755,0,0,0,.173-.478.763.763,0,1,0-1.526,0,.754.754,0,0,0,.047.254h-.147a3.268,3.268,0,0,0-1.511.371,1.979,1.979,0,0,0-.168-.214V4.755l-.449-.9.9.448h.823V2.272H11.1l-.9.449.448-.9V1H8.612v.823l.449.9-.9-.448H7.341V4.306h.823l.9-.449-.448.9v.471a1.948,1.948,0,0,0-.168.214,3.268,3.268,0,0,0-1.511-.371H6.785a.754.754,0,0,0,.047-.254.763.763,0,1,0-1.526,0,.755.755,0,0,0,.173.478,3.685,3.685,0,0,0-.71.345.761.761,0,1,0-.993.909,3.692,3.692,0,0,0-.464.793.765.765,0,1,0-.285,1.239c0,.072-.011.144-.011.217v.174a3.786,3.786,0,0,0,.034.479.756.756,0,0,0-.288-.057.763.763,0,1,0,.626,1.2,3.721,3.721,0,0,0,.684.978,1.8,1.8,0,0,0-.039.368,1.773,1.773,0,0,0,.537,1.272H3.526a.509.509,0,0,0-.509.509v.509a.509.509,0,0,0,.509.509v2.035H15.733V14.733a.509.509,0,0,0,.509-.509v-.509a.509.509,0,0,0-.509-.509H14.688a1.772,1.772,0,0,0,.5-1.64,3.721,3.721,0,0,0,.684-.978.763.763,0,1,0,.627-1.2Zm0-1.78a.254.254,0,1,1-.254.254A.254.254,0,0,1,16.5,7.612ZM2.763,8.121a.254.254,0,1,1,.254-.254A.254.254,0,0,1,2.763,8.121Zm0,2.289a.254.254,0,1,1,.254-.254A.254.254,0,0,1,2.763,10.41ZM15.224,5.578a.254.254,0,1,1-.254.254A.254.254,0,0,1,15.224,5.578ZM13.19,4.56a.254.254,0,1,1-.254.254A.254.254,0,0,1,13.19,4.56Zm.968,5.746a1.77,1.77,0,0,0-2.05.458A2.413,2.413,0,0,0,11.794,10L10.475,7.922a.9.9,0,0,0,.16-.679,3.454,3.454,0,0,1,2-.648,2,2,0,0,1,1.542.723,2.306,2.306,0,0,1,.073,2.86Zm-9.057,0L5,10.177a2.305,2.305,0,0,1,.073-2.859A2,2,0,0,1,6.62,6.595a3.454,3.454,0,0,1,2,.648.9.9,0,0,0,.16.679L7.465,10a2.413,2.413,0,0,0-.314.769,1.77,1.77,0,0,0-2.05-.458ZM9.629,6.849a.509.509,0,1,1-.509.509A.509.509,0,0,1,9.629,6.849Zm.425,6.334-.281-.492a1.528,1.528,0,0,0,1.382-1.519v-.03a1.519,1.519,0,0,0-.092-.522l-.7-1.928,1,1.576a1.913,1.913,0,0,1-1.311,2.915Zm-.849,0a1.912,1.912,0,0,1-1.311-2.915l1-1.576-.7,1.928a1.514,1.514,0,0,0-.092.522v.03a1.527,1.527,0,0,0,1.382,1.519Zm.5-4.816.882,2.427a1.017,1.017,0,0,1,.061.348v.03a1.017,1.017,0,1,1-2.035,0v-.03a1.017,1.017,0,0,1,.061-.348l.882-2.427c.025,0,.049.007.074.007s.049-.006.073-.007ZM7.467,12.6a2.435,2.435,0,0,0,.561.611H7.058A1.79,1.79,0,0,0,7.467,12.6Zm2.163.87.734,1.284-.647,1.51H9.543L8.9,14.749Zm2.163-.87a1.787,1.787,0,0,0,.408.611h-.969A2.444,2.444,0,0,0,11.792,12.6ZM10.446,6.757a1.016,1.016,0,0,0-.562-.38v-.29H9.375v.29a1.016,1.016,0,0,0-.562.38q-.1-.066-.2-.126v-.08a1.492,1.492,0,0,1,.367-.974h1.3a1.492,1.492,0,0,1,.367.974v.08q-.1.06-.2.126ZM9.884,3.289a.254.254,0,1,1-.254-.254A.254.254,0,0,1,9.884,3.289ZM9.121,4.875l.416-.832a.458.458,0,0,0,.185,0l.416.832v.194H9.121ZM11.215,2.78h.194V3.8h-.194l-.832-.416a.737.737,0,0,0,.009-.092.737.737,0,0,0-.009-.092ZM9.121,1.509h1.017V1.7l-.416.832a.458.458,0,0,0-.185,0L9.121,1.7ZM8.044,3.8H7.849V2.78h.194l.832.416a.737.737,0,0,0-.009.092.737.737,0,0,0,.009.092ZM6.069,4.56a.254.254,0,1,1-.254.254A.254.254,0,0,1,6.069,4.56ZM4.035,5.578a.254.254,0,1,1-.254.254A.254.254,0,0,1,4.035,5.578ZM3.526,8.971V8.8A3.219,3.219,0,0,1,6.745,5.578h.187A2.764,2.764,0,0,1,8.218,5.9a1.979,1.979,0,0,0-.106.487,3.956,3.956,0,0,0-1.492-.3,2.511,2.511,0,0,0-1.933.905A2.815,2.815,0,0,0,4.6,10.482l.07.094a1.794,1.794,0,0,0-.389.463,3.194,3.194,0,0,1-.754-2.068Zm1.017,2.965a1.272,1.272,0,1,1,1.272,1.272A1.273,1.273,0,0,1,4.543,11.936Zm-1.017,1.78H8.9l-.291.509H3.526Zm.509,1.017h4.3l.654,1.526H4.035Zm11.19,1.526H10.269l.654-1.526h4.3Zm.509-2.543v.509H10.649l-.291-.509Zm-2.289-.509a1.272,1.272,0,1,1,1.272-1.272A1.273,1.273,0,0,1,13.444,13.207Zm1.147-2.631.07-.094a2.814,2.814,0,0,0-.089-3.491,2.511,2.511,0,0,0-1.933-.905,3.956,3.956,0,0,0-1.492.3,2,2,0,0,0-.106-.487,2.764,2.764,0,0,1,1.286-.318h.187A3.219,3.219,0,0,1,15.733,8.8v.174a3.193,3.193,0,0,1-.754,2.068,1.789,1.789,0,0,0-.388-.463ZM16.5,10.41a.254.254,0,1,1,.254-.254A.254.254,0,0,1,16.5,10.41Z" transform="translate(-2 -1)"/>
      <path id="Path_503" data-name="Path 503" d="M22,57h.509v.509H22Z" transform="translate(-16.914 -42.758)"/>
      <path id="Path_504" data-name="Path 504" d="M17,57h.509v.509H17Z" transform="translate(-13.185 -42.758)"/>
      <path id="Path_505" data-name="Path 505" d="M12,57h.509v.509H12Z" transform="translate(-9.457 -42.758)"/>
      <path id="Path_506" data-name="Path 506" d="M50,57h.509v.509H50Z" transform="translate(-37.793 -42.758)"/>
      <path id="Path_507" data-name="Path 507" d="M45,57h.509v.509H45Z" transform="translate(-34.064 -42.758)"/>
      <path id="Path_508" data-name="Path 508" d="M40,57h.509v.509H40Z" transform="translate(-30.336 -42.758)"/>
    </g>
  </g>
</svg>
