<svg xmlns="http://www.w3.org/2000/svg" xmlns:xlink="http://www.w3.org/1999/xlink" width="44.524" height="44.523" viewBox="0 0 44.524 44.523">
  <defs>
    <filter id="Rectangle_138" x="0" y="0" width="44.524" height="44.523" filterUnits="userSpaceOnUse">
      <feOffset dy="3" input="SourceAlpha"/>
      <feGaussianBlur stdDeviation="3" result="blur"/>
      <feFlood flood-opacity="0.161"/>
      <feComposite operator="in" in2="blur"/>
      <feComposite in="SourceGraphic"/>
    </filter>
  </defs>
  <g id="Group_206" data-name="Group 206" transform="translate(9 6)">
    <g transform="matrix(1, 0, 0, 1, -9, -6)" filter="url(#Rectangle_138)">
      <rect id="Rectangle_138-2" data-name="Rectangle 138" width="26.524" height="26.524" rx="3" transform="translate(9 6)" fill="#decb8c"/>
    </g>
    <g id="clubs" transform="translate(5.392 4.485)">
      <path id="Path_509" data-name="Path 509" d="M36.062,6.83a3.749,3.749,0,0,0-2.543-.246,3.987,3.987,0,0,0,.939-2.8,4,4,0,0,0-8,.218A3.985,3.985,0,0,0,27.4,6.583a3.749,3.749,0,0,0-2.543.246,4.075,4.075,0,0,0-2.405,3.587,4,4,0,0,0,6.774,2.938v1.179a3.249,3.249,0,0,1-.428,1.613l-.54.945a.308.308,0,0,0,.267.461h3.866a.308.308,0,0,0,.267-.461l-.54-.945a3.252,3.252,0,0,1-.428-1.613V13.354a4,4,0,0,0,6.774-2.938A4.075,4.075,0,0,0,36.062,6.83" transform="translate(-22.454 0)"/>
      <path id="Path_510" data-name="Path 510" d="M365.852,297.417a2.443,2.443,0,0,1-1.753.733.308.308,0,0,0,0,.616,3.08,3.08,0,0,0,3.079-3.12.308.308,0,1,0-.616.008A2.445,2.445,0,0,1,365.852,297.417Z" transform="translate(-352.089 -285.216)" fill="#2a2d33"/>
    </g>
  </g>
</svg>
