<svg xmlns="http://www.w3.org/2000/svg" xmlns:xlink="http://www.w3.org/1999/xlink" width="44.524" height="44.524" viewBox="0 0 44.524 44.524">
  <defs>
    <filter id="Rectangle_141" x="0" y="0" width="44.524" height="44.524" filterUnits="userSpaceOnUse">
      <feOffset dy="3" input="SourceAlpha"/>
      <feGaussianBlur stdDeviation="3" result="blur"/>
      <feFlood flood-opacity="0.161"/>
      <feComposite operator="in" in2="blur"/>
      <feComposite in="SourceGraphic"/>
    </filter>
  </defs>
  <g id="Group_224" data-name="Group 224" transform="translate(9 6)">
    <g transform="matrix(1, 0, 0, 1, -9, -6)" filter="url(#Rectangle_141)">
      <rect id="Rectangle_141-2" data-name="Rectangle 141" width="26.524" height="26.524" rx="3" transform="translate(9 6)" fill="#decb8c"/>
    </g>
    <path id="spades" d="M16.081,6.9A19.827,19.827,0,0,0,9.022.053a.374.374,0,0,0-.384,0A19.574,19.574,0,0,0,1.579,6.825a4.484,4.484,0,0,0-.431,3.55,4.232,4.232,0,0,0,2.2,2.557,3.215,3.215,0,0,0,1.59.345h0a3.376,3.376,0,0,0,.346-.036,4.379,4.379,0,0,0,2.383-1.2A5.98,5.98,0,0,1,6.727,15.1a.715.715,0,0,0-.09.762.694.694,0,0,0,.631.4H10.4a.692.692,0,0,0,.629-.394.716.716,0,0,0-.091-.762,6.067,6.067,0,0,1-.944-2.993A4.4,4.4,0,0,0,11.917,13.2a5.066,5.066,0,0,0,.807.153,3.206,3.206,0,0,0,1.585-.346,4.231,4.231,0,0,0,2.2-2.557A4.487,4.487,0,0,0,16.081,6.9Zm-.607,3.232a3.157,3.157,0,0,1-1.647,1.9,2.078,2.078,0,0,1-1.035.233h-.02l-.02,0a5.14,5.14,0,0,1-.88-.21,3.558,3.558,0,0,1-1.22-.713.271.271,0,1,1,.357-.408,3.026,3.026,0,0,0,1.034.606,4.64,4.64,0,0,0,.764.185,1.534,1.534,0,0,0,.779-.176,2.618,2.618,0,0,0,1.37-1.576A2.876,2.876,0,0,0,14.664,7.7,17.728,17.728,0,0,0,8.83,1.859,17.563,17.563,0,0,0,3,7.626,2.875,2.875,0,0,0,2.705,9.9a2.62,2.62,0,0,0,1.37,1.576,1.583,1.583,0,0,0,.832.176c.007,0,.079-.008.182-.025a3.11,3.11,0,0,0,1.466-.674.271.271,0,1,1,.344.42,3.655,3.655,0,0,1-1.722.79c-.126.02-.214.028-.249.031a2.129,2.129,0,0,1-1.092-.232,3.155,3.155,0,0,1-1.647-1.9,3.411,3.411,0,0,1,.338-2.7A18.229,18.229,0,0,1,8.683,1.307l.147-.1.147.1a18.388,18.388,0,0,1,6.159,6.13A3.411,3.411,0,0,1,15.474,10.135Z" transform="translate(4.432 5.128)"/>
  </g>
</svg>
