<svg xmlns="http://www.w3.org/2000/svg" xmlns:xlink="http://www.w3.org/1999/xlink" width="44.524" height="44.523" viewBox="0 0 44.524 44.523">
  <defs>
    <filter id="Rectangle_136" x="0" y="0" width="44.524" height="44.523" filterUnits="userSpaceOnUse">
      <feOffset dy="3" input="SourceAlpha"/>
      <feGaussianBlur stdDeviation="3" result="blur"/>
      <feFlood flood-opacity="0.161"/>
      <feComposite operator="in" in2="blur"/>
      <feComposite in="SourceGraphic"/>
    </filter>
  </defs>
  <g id="Group_228" data-name="Group 228" transform="translate(9 6)">
    <g transform="matrix(1, 0, 0, 1, -9, -6)" filter="url(#Rectangle_136)">
      <rect id="Rectangle_136-2" data-name="Rectangle 136" width="26.524" height="26.524" rx="3" transform="translate(9 6)" fill="#decb8c"/>
    </g>
    <path id="XMLID_3_" d="M48.832,13.1l-.555-2.939a.379.379,0,0,0-.568-.254l-2.561,1.544a.379.379,0,0,0,.222.7l1-.07a5.27,5.27,0,0,1-4.042,1.946V5.617h.824a.8.8,0,1,0,0-1.278h-.823V3.184a1.737,1.737,0,1,0-1.917,0V4.339h-.823a.8.8,0,1,0,0,1.278h.824v8.408a5.269,5.269,0,0,1-4.042-1.946l1,.07a.379.379,0,0,0,.222-.7L35.029,9.9a.379.379,0,0,0-.568.254L33.906,13.1a.379.379,0,0,0,.672.3l.6-.771A8.187,8.187,0,0,0,40.3,16.514l.8.8a.379.379,0,0,0,.535,0l.8-.8a8.187,8.187,0,0,0,5.124-3.887l.6.771a.379.379,0,0,0,.672-.3ZM41.369,1.278a.459.459,0,1,1-.459.459A.46.46,0,0,1,41.369,1.278Z" transform="translate(-28.064 4.509)"/>
  </g>
</svg>
