<svg id="crown" xmlns="http://www.w3.org/2000/svg" width="71.594" height="73.981" viewBox="0 0 71.594 73.981">
  <path id="Path_500" data-name="Path 500" d="M17.58,41a3.58,3.58,0,1,0,3.58,3.58A3.584,3.584,0,0,0,17.58,41Zm0,4.773a1.193,1.193,0,1,1,1.193-1.193A1.194,1.194,0,0,1,17.58,45.773Z" transform="translate(0.319 6.73)"/>
  <path id="Path_501" data-name="Path 501" d="M47.58,41a3.58,3.58,0,1,0,3.58,3.58A3.584,3.584,0,0,0,47.58,41Zm0,4.773a1.193,1.193,0,1,1,1.193-1.193A1.194,1.194,0,0,1,47.58,45.773Z" transform="translate(6.116 6.73)"/>
  <path id="Path_502" data-name="Path 502" d="M70.015,40.377a3.546,3.546,0,0,0-1.353.27,17.766,17.766,0,0,0,.16-2.247v-.819c0-.342-.03-.68-.05-1.019a3.576,3.576,0,1,0-1.336-5.813,17.323,17.323,0,0,0-2.178-3.722A3.572,3.572,0,1,0,60.6,22.762a17.22,17.22,0,0,0-3.332-1.619,3.542,3.542,0,0,0,.814-2.244,3.58,3.58,0,1,0-7.159,0,3.54,3.54,0,0,0,.22,1.193h-.691a15.333,15.333,0,0,0-7.091,1.741,9.286,9.286,0,0,0-.79-1V18.617l-2.1-4.209,4.21,2.1h3.861V6.966H44.675l-4.209,2.1,2.1-4.21V1H33.024V4.861l2.1,4.209-4.21-2.1H27.058v9.546h3.861l4.209-2.1-2.1,4.21v2.211a9.138,9.138,0,0,0-.79,1,15.333,15.333,0,0,0-7.091-1.741h-.691a3.539,3.539,0,0,0,.22-1.193,3.58,3.58,0,0,0-7.159,0,3.542,3.542,0,0,0,.814,2.244,17.29,17.29,0,0,0-3.332,1.619,3.572,3.572,0,1,0-4.657,4.265A17.323,17.323,0,0,0,8.16,30.749a3.589,3.589,0,1,0-1.336,5.813c-.02.339-.05.677-.05,1.019V38.4a17.765,17.765,0,0,0,.16,2.247,3.546,3.546,0,0,0-1.353-.27,3.58,3.58,0,1,0,2.939,5.614,17.46,17.46,0,0,0,3.209,4.59,8.421,8.421,0,0,0-.181,1.728,8.321,8.321,0,0,0,2.519,5.966H9.159a2.389,2.389,0,0,0-2.386,2.386v2.386a2.389,2.389,0,0,0,2.386,2.386v9.546H66.435V65.435a2.389,2.389,0,0,0,2.386-2.386V60.662a2.389,2.389,0,0,0-2.386-2.386H61.53a8.314,8.314,0,0,0,2.336-7.694,17.461,17.461,0,0,0,3.209-4.59,3.578,3.578,0,1,0,2.94-5.614Zm0-8.353a1.193,1.193,0,1,1-1.193,1.193A1.194,1.194,0,0,1,70.015,32.024ZM5.58,34.411a1.193,1.193,0,1,1,1.193-1.193A1.194,1.194,0,0,1,5.58,34.411Zm0,10.739a1.193,1.193,0,1,1,1.193-1.193A1.194,1.194,0,0,1,5.58,45.15ZM64.049,22.478a1.193,1.193,0,1,1-1.193,1.193A1.194,1.194,0,0,1,64.049,22.478ZM54.5,17.705A1.193,1.193,0,1,1,53.309,18.9,1.194,1.194,0,0,1,54.5,17.705Zm4.541,26.958a8.306,8.306,0,0,0-9.619,2.148A11.321,11.321,0,0,0,47.954,43.2l-6.189-9.726a4.237,4.237,0,0,0,.751-3.187,16.208,16.208,0,0,1,9.4-3.04,9.39,9.39,0,0,1,7.236,3.39A10.818,10.818,0,0,1,59.5,44.058Zm-42.494,0-.453-.606a10.816,10.816,0,0,1,.342-13.416,9.394,9.394,0,0,1,7.237-3.39,16.2,16.2,0,0,1,9.4,3.04,4.237,4.237,0,0,0,.751,3.187L27.64,43.2a11.321,11.321,0,0,0-1.471,3.606,8.306,8.306,0,0,0-9.619-2.148ZM37.8,28.445a2.386,2.386,0,1,1-2.386,2.386A2.389,2.389,0,0,1,37.8,28.445Zm1.993,29.72-1.32-2.309a7.168,7.168,0,0,0,6.486-7.126v-.142a7.129,7.129,0,0,0-.431-2.447l-3.29-9.047,4.7,7.393A8.975,8.975,0,0,1,39.79,58.165Zm-3.985,0a8.973,8.973,0,0,1-6.15-13.678l4.7-7.393L31.07,46.14a7.1,7.1,0,0,0-.432,2.447v.142a7.166,7.166,0,0,0,6.486,7.125Zm2.338-22.6,4.141,11.387a4.772,4.772,0,0,1,.286,1.631v.142a4.773,4.773,0,0,1-9.546,0v-.142a4.772,4.772,0,0,1,.286-1.631L37.45,35.569c.118.008.229.035.347.035S38.026,35.578,38.142,35.569ZM27.649,55.407a11.426,11.426,0,0,0,2.63,2.869H25.734A8.4,8.4,0,0,0,27.649,55.407ZM37.8,59.488l3.443,6.023L38.2,72.594H37.39L34.355,65.51Zm10.149-4.081a8.385,8.385,0,0,0,1.916,2.869H45.317A11.466,11.466,0,0,0,47.946,55.407Zm-6.319-27.4a4.765,4.765,0,0,0-2.636-1.783V24.865H36.6v1.363a4.769,4.769,0,0,0-2.636,1.782q-.464-.31-.944-.589v-.373a7,7,0,0,1,1.721-4.568h6.1a7,7,0,0,1,1.721,4.568v.373q-.48.281-.944.591ZM38.99,11.739A1.193,1.193,0,1,1,37.8,10.546,1.194,1.194,0,0,1,38.99,11.739Zm-3.58,7.441,1.953-3.905a2.147,2.147,0,0,0,.866,0l1.953,3.905v.912H35.411Zm9.828-9.828h.912v4.773h-.912l-3.905-1.953a3.459,3.459,0,0,0,.044-.433,3.459,3.459,0,0,0-.044-.433ZM35.411,3.386h4.773V4.3L38.23,8.2a2.147,2.147,0,0,0-.866,0L35.411,4.3ZM30.356,14.126h-.912V9.353h.912l3.905,1.953a3.457,3.457,0,0,0-.044.433,3.457,3.457,0,0,0,.044.433Zm-9.264,3.58A1.193,1.193,0,1,1,19.9,18.9,1.194,1.194,0,0,1,21.092,17.705Zm-9.546,4.773a1.193,1.193,0,1,1-1.193,1.193A1.194,1.194,0,0,1,11.546,22.478ZM9.159,38.4v-.819a15.1,15.1,0,0,1,15.1-15.1h.879a12.969,12.969,0,0,1,6.033,1.492,9.284,9.284,0,0,0-.5,2.286,18.564,18.564,0,0,0-7-1.391,11.784,11.784,0,0,0-9.071,4.248,13.206,13.206,0,0,0-.418,16.377l.331.441A8.416,8.416,0,0,0,12.7,48.1a14.988,14.988,0,0,1-3.536-9.7Zm4.773,13.91A5.966,5.966,0,1,1,19.9,58.276,5.973,5.973,0,0,1,13.932,52.309ZM9.159,60.662H34.377l-1.364,2.386H9.159Zm2.386,4.773h20.18L34.8,72.594H11.546Zm52.5,7.159H40.8l3.069-7.159h20.18Zm2.386-11.932v2.386H42.581l-1.364-2.386ZM55.7,58.276a5.966,5.966,0,1,1,5.966-5.966A5.973,5.973,0,0,1,55.7,58.276Zm5.38-12.345.331-.44a13.2,13.2,0,0,0-.419-16.377,11.78,11.78,0,0,0-9.07-4.248,18.564,18.564,0,0,0-7,1.391,9.4,9.4,0,0,0-.5-2.286,12.969,12.969,0,0,1,6.033-1.492h.879a15.1,15.1,0,0,1,15.1,15.1V38.4A14.983,14.983,0,0,1,62.9,48.1a8.393,8.393,0,0,0-1.822-2.172Zm8.939-.78a1.193,1.193,0,1,1,1.193-1.193A1.194,1.194,0,0,1,70.015,45.15Z" transform="translate(-2 -1)"/>
  <path id="Path_503" data-name="Path 503" d="M22,57h2.386v2.386H22Z" transform="translate(1.865 9.822)"/>
  <path id="Path_504" data-name="Path 504" d="M17,57h2.386v2.386H17Z" transform="translate(0.899 9.822)"/>
  <path id="Path_505" data-name="Path 505" d="M12,57h2.386v2.386H12Z" transform="translate(-0.068 9.822)"/>
  <path id="Path_506" data-name="Path 506" d="M50,57h2.386v2.386H50Z" transform="translate(7.276 9.822)"/>
  <path id="Path_507" data-name="Path 507" d="M45,57h2.386v2.386H45Z" transform="translate(6.309 9.822)"/>
  <path id="Path_508" data-name="Path 508" d="M40,57h2.386v2.386H40Z" transform="translate(5.343 9.822)"/>
</svg>
