<svg xmlns="http://www.w3.org/2000/svg" xmlns:xlink="http://www.w3.org/1999/xlink" width="103.053" height="100.031" viewBox="0 0 103.053 100.031">
  <defs>
    <filter id="Rectangle_118" x="0" y="0" width="103.053" height="100.031" filterUnits="userSpaceOnUse">
      <feOffset dy="3" input="SourceAlpha"/>
      <feGaussianBlur stdDeviation="3" result="blur"/>
      <feFlood flood-opacity="0.161"/>
      <feComposite operator="in" in2="blur"/>
      <feComposite in="SourceGraphic"/>
    </filter>
  </defs>
  <g id="Group_272" data-name="Group 272" transform="translate(2632.151 -7641.474)">
    <g transform="matrix(1, 0, 0, 1, -2632.15, 7641.47)" filter="url(#Rectangle_118)">
      <rect id="Rectangle_118-2" data-name="Rectangle 118" width="85.053" height="82.031" rx="20" transform="translate(9 6)" fill="#decb8c"/>
    </g>
    <g id="crown" transform="translate(-2605.006 7663.253)">
      <path id="Path_500" data-name="Path 500" d="M16.447,41a2.447,2.447,0,1,0,2.447,2.447A2.449,2.449,0,0,0,16.447,41Zm0,3.262a.816.816,0,1,1,.816-.816A.816.816,0,0,1,16.447,44.262Z" transform="translate(-4.214 -8.38)"/>
      <path id="Path_501" data-name="Path 501" d="M46.447,41a2.447,2.447,0,1,0,2.447,2.447A2.449,2.449,0,0,0,46.447,41Zm0,3.262a.816.816,0,1,1,.816-.816A.816.816,0,0,1,46.447,44.262Z" transform="translate(-9.749 -8.38)"/>
      <path id="Path_502" data-name="Path 502" d="M48.484,27.912a2.423,2.423,0,0,0-.925.184,12.141,12.141,0,0,0,.109-1.536V26c0-.234-.02-.465-.034-.7a2.444,2.444,0,1,0-.913-3.973,11.839,11.839,0,0,0-1.488-2.544,2.441,2.441,0,1,0-3.183-2.915,11.769,11.769,0,0,0-2.277-1.107,2.42,2.42,0,0,0,.556-1.534,2.447,2.447,0,1,0-4.893,0,2.419,2.419,0,0,0,.15.816h-.472a10.479,10.479,0,0,0-4.847,1.19,6.347,6.347,0,0,0-.54-.687V13.04l-1.439-2.876L31.166,11.6H33.8V5.078H31.166L28.289,6.516l1.438-2.877V1H23.2V3.639l1.439,2.876L21.765,5.078H19.126V11.6h2.639l2.876-1.439L23.2,13.04v1.511a6.246,6.246,0,0,0-.54.687,10.479,10.479,0,0,0-4.847-1.19h-.472a2.419,2.419,0,0,0,.15-.816,2.447,2.447,0,0,0-4.893,0,2.42,2.42,0,0,0,.556,1.534,11.816,11.816,0,0,0-2.277,1.107A2.441,2.441,0,1,0,7.7,18.788,11.839,11.839,0,0,0,6.21,21.331,2.453,2.453,0,1,0,5.3,25.3c-.014.232-.034.462-.034.7v.559A12.141,12.141,0,0,0,5.371,28.1a2.423,2.423,0,0,0-.925-.184,2.447,2.447,0,1,0,2.009,3.837,11.933,11.933,0,0,0,2.193,3.137,5.755,5.755,0,0,0-.124,1.181,5.687,5.687,0,0,0,1.722,4.078H6.893a1.633,1.633,0,0,0-1.631,1.631v1.631a1.633,1.633,0,0,0,1.631,1.631v6.524H46.037V45.037a1.633,1.633,0,0,0,1.631-1.631V41.775a1.633,1.633,0,0,0-1.631-1.631H42.685a5.682,5.682,0,0,0,1.6-5.258,11.933,11.933,0,0,0,2.193-3.137,2.445,2.445,0,1,0,2.009-3.837Zm0-5.709a.816.816,0,1,1-.816.816A.816.816,0,0,1,48.484,22.2ZM4.447,23.834a.816.816,0,1,1,.816-.816A.816.816,0,0,1,4.447,23.834Zm0,7.34a.816.816,0,1,1,.816-.816A.816.816,0,0,1,4.447,31.174Zm39.96-15.495a.816.816,0,1,1-.816.816A.816.816,0,0,1,44.406,15.679Zm-6.524-3.262a.816.816,0,1,1-.816.816A.816.816,0,0,1,37.882,12.417Zm3.1,18.424a5.677,5.677,0,0,0-6.574,1.468,7.737,7.737,0,0,0-1.006-2.464L29.177,23.2a2.9,2.9,0,0,0,.513-2.178,11.077,11.077,0,0,1,6.426-2.078,6.417,6.417,0,0,1,4.945,2.317,7.393,7.393,0,0,1,.236,9.17Zm-29.042,0-.31-.414a7.392,7.392,0,0,1,.234-9.169,6.42,6.42,0,0,1,4.946-2.317,11.075,11.075,0,0,1,6.426,2.078,2.9,2.9,0,0,0,.513,2.178l-4.23,6.647a7.737,7.737,0,0,0-1.006,2.464,5.677,5.677,0,0,0-6.574-1.468ZM26.465,19.757a1.631,1.631,0,1,1-1.631,1.631A1.633,1.633,0,0,1,26.465,19.757Zm1.362,20.312-.9-1.578a4.9,4.9,0,0,0,4.433-4.87v-.1a4.872,4.872,0,0,0-.294-1.673l-2.248-6.183,3.216,5.053a6.134,6.134,0,0,1-4.2,9.348Zm-2.724,0a6.133,6.133,0,0,1-4.2-9.348l3.216-5.053L21.867,31.85a4.854,4.854,0,0,0-.3,1.673v.1a4.9,4.9,0,0,0,4.433,4.869Zm1.6-15.442,2.83,7.782a3.261,3.261,0,0,1,.2,1.115v.1a3.262,3.262,0,1,1-6.524,0v-.1a3.261,3.261,0,0,1,.2-1.115l2.83-7.782c.081.006.157.024.237.024s.157-.018.236-.024ZM19.529,38.184a7.809,7.809,0,0,0,1.8,1.96H18.22A5.74,5.74,0,0,0,19.529,38.184Zm6.936,2.789,2.353,4.117L26.743,49.93h-.556l-2.075-4.842ZM33.4,38.184a5.73,5.73,0,0,0,1.31,1.96H31.6A7.836,7.836,0,0,0,33.4,38.184ZM29.082,19.46a3.256,3.256,0,0,0-1.8-1.218V17.31H25.65v.931a3.259,3.259,0,0,0-1.8,1.218q-.317-.212-.645-.4V18.8a4.785,4.785,0,0,1,1.176-3.122h4.172A4.785,4.785,0,0,1,29.727,18.8v.255q-.328.192-.645.4Zm-1.8-11.12a.816.816,0,1,1-.816-.816A.816.816,0,0,1,27.281,8.34Zm-2.447,5.085,1.335-2.669a1.467,1.467,0,0,0,.592,0L28.1,13.425v.623H24.834Zm6.716-6.716h.623V9.971h-.623L28.881,8.636a2.364,2.364,0,0,0,.03-.3,2.364,2.364,0,0,0-.03-.3ZM24.834,2.631H28.1v.623L26.761,5.923a1.467,1.467,0,0,0-.592,0L24.834,3.254ZM21.38,9.971h-.623V6.709h.623l2.669,1.335a2.364,2.364,0,0,0-.03.3,2.364,2.364,0,0,0,.03.3Zm-6.332,2.447a.816.816,0,1,1-.816.816A.816.816,0,0,1,15.048,12.417ZM8.524,15.679a.816.816,0,1,1-.816.816A.816.816,0,0,1,8.524,15.679ZM6.893,26.56V26A10.321,10.321,0,0,1,17.215,15.679h.6A8.863,8.863,0,0,1,21.939,16.7a6.345,6.345,0,0,0-.34,1.563,12.687,12.687,0,0,0-4.785-.951,8.053,8.053,0,0,0-6.2,2.9,9.026,9.026,0,0,0-.285,11.193l.226.3a5.752,5.752,0,0,0-1.246,1.483A10.243,10.243,0,0,1,6.893,26.56Zm3.262,9.506a4.078,4.078,0,1,1,4.078,4.078A4.082,4.082,0,0,1,10.155,36.067ZM6.893,41.775H24.128L23.2,43.406H6.893Zm1.631,3.262H22.316l2.1,4.893H8.524ZM44.406,49.93H28.517l2.1-4.893H44.406Zm1.631-8.155v1.631h-16.3L28.8,41.775ZM38.7,40.144a4.078,4.078,0,1,1,4.078-4.078A4.082,4.082,0,0,1,38.7,40.144Zm3.677-8.437.226-.3a9.024,9.024,0,0,0-.286-11.193,8.051,8.051,0,0,0-6.2-2.9,12.687,12.687,0,0,0-4.785.951,6.428,6.428,0,0,0-.34-1.563,8.863,8.863,0,0,1,4.123-1.019h.6A10.321,10.321,0,0,1,46.037,26v.559a10.24,10.24,0,0,1-2.417,6.631,5.736,5.736,0,0,0-1.245-1.484Zm6.109-.533a.816.816,0,1,1,.815-.816A.816.816,0,0,1,48.484,31.174Z" transform="translate(-2 -1)"/>
      <path id="Path_503" data-name="Path 503" d="M22,57h1.631v1.631H22Z" transform="translate(-5.69 -11.332)"/>
      <path id="Path_504" data-name="Path 504" d="M17,57h1.631v1.631H17Z" transform="translate(-4.767 -11.332)"/>
      <path id="Path_505" data-name="Path 505" d="M12,57h1.631v1.631H12Z" transform="translate(-3.845 -11.332)"/>
      <path id="Path_506" data-name="Path 506" d="M50,57h1.631v1.631H50Z" transform="translate(-10.856 -11.332)"/>
      <path id="Path_507" data-name="Path 507" d="M45,57h1.631v1.631H45Z" transform="translate(-9.933 -11.332)"/>
      <path id="Path_508" data-name="Path 508" d="M40,57h1.631v1.631H40Z" transform="translate(-9.011 -11.332)"/>
    </g>
    <rect id="Rectangle_150" data-name="Rectangle 150" width="85.053" height="82.031" rx="20" transform="translate(-2623.151 7647.474)" fill="rgba(83,83,83,0.83)"/>
  </g>
</svg>
