<svg xmlns="http://www.w3.org/2000/svg" xmlns:xlink="http://www.w3.org/1999/xlink" width="49.679" height="49.679" viewBox="0 0 49.679 49.679">
  <defs>
    <filter id="Rectangle_118" x="0" y="0" width="49.679" height="49.679" filterUnits="userSpaceOnUse">
      <feOffset dy="3" input="SourceAlpha"/>
      <feGaussianBlur stdDeviation="3" result="blur"/>
      <feFlood flood-opacity="0.161"/>
      <feComposite operator="in" in2="blur"/>
      <feComposite in="SourceGraphic"/>
    </filter>
  </defs>
  <g id="Group_266" data-name="Group 266" transform="translate(1986.151 -7447.16)">
    <g transform="matrix(1, 0, 0, 1, -1986.15, 7447.16)" filter="url(#Rectangle_118)">
      <rect id="Rectangle_118-2" data-name="Rectangle 118" width="31.679" height="31.679" rx="15.84" transform="translate(9 6)" fill="#decb8c"/>
    </g>
    <g id="crown" transform="translate(-1970.393 7459.602)">
      <path id="Path_500" data-name="Path 500" d="M14.911,41a.911.911,0,1,0,.911.911A.912.912,0,0,0,14.911,41Zm0,1.215a.3.3,0,1,1,.3-.3A.3.3,0,0,1,14.911,42.215Z" transform="translate(-10.355 -28.85)"/>
      <path id="Path_501" data-name="Path 501" d="M44.911,41a.911.911,0,1,0,.911.911A.912.912,0,0,0,44.911,41Zm0,1.215a.3.3,0,1,1,.3-.3A.3.3,0,0,1,44.911,42.215Z" transform="translate(-31.243 -28.85)"/>
      <path id="Path_502" data-name="Path 502" d="M19.314,11.024a.9.9,0,0,0-.344.069,4.523,4.523,0,0,0,.041-.572v-.208c0-.087-.008-.173-.013-.259a.91.91,0,1,0-.34-1.48,4.41,4.41,0,0,0-.554-.947A.909.909,0,1,0,16.917,6.54a4.384,4.384,0,0,0-.848-.412.9.9,0,0,0,.207-.571.911.911,0,0,0-1.822,0,.9.9,0,0,0,.056.3h-.176a3.9,3.9,0,0,0-1.805.443,2.364,2.364,0,0,0-.2-.256V5.485l-.536-1.071,1.072.536h.983V2.519h-.983l-1.071.536.536-1.072V1H9.9v.983l.536,1.071L9.362,2.519H8.379v2.43h.983l1.071-.536L9.9,5.485v.563a2.327,2.327,0,0,0-.2.256A3.9,3.9,0,0,0,7.891,5.86H7.715a.9.9,0,0,0,.056-.3.911.911,0,0,0-1.822,0,.9.9,0,0,0,.207.571,4.4,4.4,0,0,0-.848.412A.909.909,0,1,0,4.122,7.625a4.41,4.41,0,0,0-.554.947.914.914,0,1,0-.34,1.48c-.005.086-.013.172-.013.259v.208a4.522,4.522,0,0,0,.041.572.9.9,0,0,0-.344-.069.911.911,0,1,0,.748,1.429,4.445,4.445,0,0,0,.817,1.169,2.144,2.144,0,0,0-.046.44,2.118,2.118,0,0,0,.641,1.519H3.822a.608.608,0,0,0-.607.607v.607a.608.608,0,0,0,.607.607v2.43H18.4V17.4a.608.608,0,0,0,.607-.607v-.607a.608.608,0,0,0-.607-.607H17.154a2.116,2.116,0,0,0,.595-1.959,4.445,4.445,0,0,0,.817-1.169.911.911,0,1,0,.748-1.429Zm0-2.126a.3.3,0,1,1-.3.3A.3.3,0,0,1,19.314,8.9ZM2.911,9.5a.3.3,0,1,1,.3-.3A.3.3,0,0,1,2.911,9.5Zm0,2.734a.3.3,0,1,1,.3-.3A.3.3,0,0,1,2.911,12.239ZM17.795,6.467a.3.3,0,1,1-.3.3A.3.3,0,0,1,17.795,6.467Zm-2.43-1.215a.3.3,0,1,1-.3.3A.3.3,0,0,1,15.365,5.252Zm1.156,6.862a2.114,2.114,0,0,0-2.449.547,2.882,2.882,0,0,0-.375-.918L12.122,9.268a1.079,1.079,0,0,0,.191-.811,4.126,4.126,0,0,1,2.394-.774,2.39,2.39,0,0,1,1.842.863,2.754,2.754,0,0,1,.088,3.415Zm-10.817,0-.115-.154a2.753,2.753,0,0,1,.087-3.415,2.391,2.391,0,0,1,1.842-.863,4.125,4.125,0,0,1,2.394.774,1.079,1.079,0,0,0,.191.811L8.527,11.744a2.882,2.882,0,0,0-.375.918A2.114,2.114,0,0,0,5.7,12.115Zm5.409-4.129a.607.607,0,1,1-.607.607A.608.608,0,0,1,11.112,7.986Zm.507,7.565-.336-.588a1.825,1.825,0,0,0,1.651-1.814v-.036a1.815,1.815,0,0,0-.11-.623l-.837-2.3,1.2,1.882a2.285,2.285,0,0,1-1.566,3.482Zm-1.015,0A2.284,2.284,0,0,1,9.04,12.07l1.2-1.882-.837,2.3a1.808,1.808,0,0,0-.11.623v.036a1.824,1.824,0,0,0,1.651,1.814ZM11.2,9.8l1.054,2.9a1.215,1.215,0,0,1,.073.415v.036a1.215,1.215,0,1,1-2.43,0v-.036A1.215,1.215,0,0,1,9.97,12.7l1.054-2.9c.03,0,.058.009.088.009s.058-.007.088-.009ZM8.529,14.85a2.909,2.909,0,0,0,.669.73H8.042A2.138,2.138,0,0,0,8.529,14.85Zm2.583,1.039.876,1.533-.773,1.8h-.207l-.773-1.8ZM13.7,14.85a2.134,2.134,0,0,0,.488.73H13.027A2.919,2.919,0,0,0,13.7,14.85ZM12.087,7.876a1.213,1.213,0,0,0-.671-.454V7.075h-.607v.347a1.214,1.214,0,0,0-.671.453q-.118-.079-.24-.15v-.1a1.782,1.782,0,0,1,.438-1.163h1.554a1.782,1.782,0,0,1,.438,1.163v.1q-.122.072-.24.15Zm-.671-4.142a.3.3,0,1,1-.3-.3A.3.3,0,0,1,11.416,3.734ZM10.5,5.628l.5-.994a.547.547,0,0,0,.221,0l.5.994V5.86H10.5Zm2.5-2.5h.232V4.341h-.232l-.994-.5a.88.88,0,0,0,.011-.11.88.88,0,0,0-.011-.11ZM10.5,1.607H11.72V1.84l-.5.994a.546.546,0,0,0-.221,0l-.5-.994ZM9.218,4.341H8.986V3.126h.232l.994.5a.881.881,0,0,0-.011.11.88.88,0,0,0,.011.11ZM6.86,5.252a.3.3,0,1,1-.3.3A.3.3,0,0,1,6.86,5.252ZM4.43,6.467a.3.3,0,1,1-.3.3A.3.3,0,0,1,4.43,6.467ZM3.822,10.52v-.208A3.844,3.844,0,0,1,7.667,6.467h.224a3.3,3.3,0,0,1,1.536.38,2.363,2.363,0,0,0-.127.582,4.726,4.726,0,0,0-1.782-.354A3,3,0,0,0,5.209,8.156,3.362,3.362,0,0,0,5.1,12.325l.084.112a2.142,2.142,0,0,0-.464.553,3.815,3.815,0,0,1-.9-2.47Zm1.215,3.541A1.519,1.519,0,1,1,6.556,15.58,1.52,1.52,0,0,1,5.037,14.061ZM3.822,16.187h6.419l-.347.607H3.822ZM4.43,17.4H9.567l.781,1.822H4.43Zm13.365,1.822H11.877l.781-1.822h5.137Zm.607-3.037v.607H12.33l-.347-.607Zm-2.734-.607a1.519,1.519,0,1,1,1.519-1.519A1.52,1.52,0,0,1,15.669,15.58Zm1.37-3.143.084-.112a3.361,3.361,0,0,0-.107-4.169,3,3,0,0,0-2.309-1.081,4.725,4.725,0,0,0-1.782.354,2.394,2.394,0,0,0-.127-.582,3.3,3.3,0,0,1,1.536-.38h.224A3.844,3.844,0,0,1,18.4,10.312v.208a3.814,3.814,0,0,1-.9,2.47,2.137,2.137,0,0,0-.464-.553Zm2.275-.2a.3.3,0,1,1,.3-.3A.3.3,0,0,1,19.314,12.239Z" transform="translate(-2 -1)"/>
      <path id="Path_503" data-name="Path 503" d="M22,57h.607v.607H22Z" transform="translate(-15.925 -39.99)"/>
      <path id="Path_504" data-name="Path 504" d="M17,57h.607v.607H17Z" transform="translate(-12.444 -39.99)"/>
      <path id="Path_505" data-name="Path 505" d="M12,57h.607v.607H12Z" transform="translate(-8.963 -39.99)"/>
      <path id="Path_506" data-name="Path 506" d="M50,57h.607v.607H50Z" transform="translate(-35.42 -39.99)"/>
      <path id="Path_507" data-name="Path 507" d="M45,57h.607v.607H45Z" transform="translate(-31.939 -39.99)"/>
      <path id="Path_508" data-name="Path 508" d="M40,57h.607v.607H40Z" transform="translate(-28.458 -39.99)"/>
    </g>
  </g>
</svg>
