<svg xmlns="http://www.w3.org/2000/svg" xmlns:xlink="http://www.w3.org/1999/xlink" width="49.679" height="49.679" viewBox="0 0 49.679 49.679">
  <defs>
    <filter id="Rectangle_118" x="0" y="0" width="49.679" height="49.679" filterUnits="userSpaceOnUse">
      <feOffset dy="3" input="SourceAlpha"/>
      <feGaussianBlur stdDeviation="3" result="blur"/>
      <feFlood flood-opacity="0.161"/>
      <feComposite operator="in" in2="blur"/>
      <feComposite in="SourceGraphic"/>
    </filter>
  </defs>
  <g id="Group_267" data-name="Group 267" transform="translate(1950.458 -7447.16)">
    <g transform="matrix(1, 0, 0, 1, -1950.46, 7447.16)" filter="url(#Rectangle_118)">
      <rect id="Rectangle_118-2" data-name="Rectangle 118" width="31.679" height="31.679" rx="15.84" transform="translate(9 6)" fill="#decb8c"/>
    </g>
    <g id="clubs" transform="translate(-1935.019 7458.518)">
      <path id="Path_509" data-name="Path 509" d="M38.707,8.157a4.478,4.478,0,0,0-3.037-.294A4.762,4.762,0,0,0,36.792,4.52a4.782,4.782,0,0,0-9.556.261,4.76,4.76,0,0,0,1.129,3.082,4.478,4.478,0,0,0-3.037.294,4.867,4.867,0,0,0-2.873,4.284,4.778,4.778,0,0,0,8.091,3.508v1.409a3.88,3.88,0,0,1-.512,1.926l-.645,1.129a.368.368,0,0,0,.319.55h4.617a.368.368,0,0,0,.319-.55L34,19.285a3.884,3.884,0,0,1-.512-1.926V15.95a4.778,4.778,0,0,0,8.091-3.508,4.867,4.867,0,0,0-2.873-4.284" transform="translate(-22.454 0)"/>
      <path id="Path_510" data-name="Path 510" d="M366.253,297.82a2.918,2.918,0,0,1-2.094.876.368.368,0,0,0,0,.736,3.678,3.678,0,0,0,3.678-3.727.368.368,0,0,0-.736.009A2.92,2.92,0,0,1,366.253,297.82Z" transform="translate(-349.814 -283.248)" fill="#2a2d33"/>
    </g>
  </g>
</svg>
