<svg xmlns="http://www.w3.org/2000/svg" xmlns:xlink="http://www.w3.org/1999/xlink" width="103.053" height="100.031" viewBox="0 0 103.053 100.031">
  <defs>
    <filter id="Rectangle_118" x="0" y="0" width="103.053" height="100.031" filterUnits="userSpaceOnUse">
      <feOffset dy="3" input="SourceAlpha"/>
      <feGaussianBlur stdDeviation="3" result="blur"/>
      <feFlood flood-opacity="0.161"/>
      <feComposite operator="in" in2="blur"/>
      <feComposite in="SourceGraphic"/>
    </filter>
  </defs>
  <g id="Group_273" data-name="Group 273" transform="translate(2534.169 -7641.474)">
    <g transform="matrix(1, 0, 0, 1, -2534.17, 7641.47)" filter="url(#Rectangle_118)">
      <rect id="Rectangle_118-2" data-name="Rectangle 118" width="85.053" height="82.031" rx="20" transform="translate(9 6)" fill="#decb8c"/>
    </g>
    <g id="clubs" transform="translate(-2507.656 7660.347)">
      <path id="Path_509" data-name="Path 509" d="M66.09,21.9a12.022,12.022,0,0,0-8.155-.79,12.784,12.784,0,0,0,3.012-8.975,12.837,12.837,0,0,0-25.656.7,12.78,12.78,0,0,0,3.031,8.275,12.022,12.022,0,0,0-8.155.79,13.067,13.067,0,0,0-7.712,11.5,12.827,12.827,0,0,0,21.724,9.42v3.782a10.417,10.417,0,0,1-1.374,5.171l-1.732,3.032a.987.987,0,0,0,.857,1.477h12.4a.987.987,0,0,0,.857-1.477l-1.732-3.032a10.428,10.428,0,0,1-1.374-5.171V42.823A12.827,12.827,0,0,0,73.8,33.4,13.067,13.067,0,0,0,66.09,21.9" transform="translate(-22.454 0)"/>
      <path id="Path_510" data-name="Path 510" d="M370.4,302a7.834,7.834,0,0,1-5.622,2.351.987.987,0,0,0,0,1.975,9.876,9.876,0,0,0,9.874-10.006.987.987,0,1,0-1.975.025A7.838,7.838,0,0,1,370.4,302Z" transform="translate(-326.266 -262.873)" fill="#2a2d33"/>
    </g>
    <rect id="Rectangle_151" data-name="Rectangle 151" width="85.053" height="82.031" rx="20" transform="translate(-2525.169 7647.474)" fill="rgba(83,83,83,0.83)"/>
  </g>
</svg>
