<svg id="clubs" xmlns="http://www.w3.org/2000/svg" width="75.134" height="82.358" viewBox="0 0 75.134 82.358">
  <path id="Path_509" data-name="Path 509" d="M86.3,32.047A17.59,17.59,0,0,0,74.37,30.891a18.706,18.706,0,0,0,4.407-13.133,18.784,18.784,0,0,0-37.539,1.024,18.7,18.7,0,0,0,4.434,12.108A17.59,17.59,0,0,0,33.74,32.047a19.119,19.119,0,0,0-11.284,16.83A18.769,18.769,0,0,0,54.242,62.659v5.534a15.242,15.242,0,0,1-2.01,7.567L49.7,80.2a1.445,1.445,0,0,0,1.254,2.162H69.091A1.444,1.444,0,0,0,70.345,80.2L67.811,75.76a15.258,15.258,0,0,1-2.01-7.567V62.659A18.769,18.769,0,0,0,97.587,48.877,19.119,19.119,0,0,0,86.3,32.047" transform="translate(-22.454 0)"/>
  <path id="Path_510" data-name="Path 510" d="M373.462,305.079a11.463,11.463,0,0,1-8.226,3.44,1.445,1.445,0,0,0,0,2.89,14.45,14.45,0,0,0,14.447-14.641,1.445,1.445,0,1,0-2.889.037A11.469,11.469,0,0,1,373.462,305.079Z" transform="translate(-308.885 -247.834)" fill="#2a2d33"/>
</svg>
