<svg xmlns="http://www.w3.org/2000/svg" width="20.312" height="19.047" viewBox="0 0 20.312 19.047">
  <g id="users-couple-hand-drawn-outlines" transform="translate(-0.003 -14.737)">
    <g id="Group_264" data-name="Group 264" transform="translate(0.004 14.737)">
      <path id="Path_522" data-name="Path 522" d="M79.961,68.274a3.432,3.432,0,0,0,1.986.657,3.632,3.632,0,0,0,2.516-1.074c.191-.185.391-.4.445-.466a.555.555,0,0,0,.061-.092,3.159,3.159,0,0,0-.314-3.68c-.211-.248-.4-.459-.466-.524a.507.507,0,0,0-.121-.085,4.055,4.055,0,0,0-1.86-.479,3.929,3.929,0,0,0-2.43.893.469.469,0,0,0-.084.082c-.055.071-.232.313-.39.545A2.928,2.928,0,0,0,79.961,68.274Zm.413-4.051a.47.47,0,0,0,.04-.049,1.906,1.906,0,0,1,.564-.419,2.679,2.679,0,0,1,1.921-.186,2.313,2.313,0,0,1,.96.593,2.137,2.137,0,0,1,.513,2.118,2.036,2.036,0,0,1-.275.591,2.512,2.512,0,0,1-4.3-.325A2.054,2.054,0,0,1,80.374,64.223Z" transform="translate(-75.314 -60.48)" fill="#e8e8e8"/>
      <path id="Path_523" data-name="Path 523" d="M297.624,19.048a2.573,2.573,0,0,0,1.488.492,2.719,2.719,0,0,0,1.883-.8c.144-.14.29-.3.33-.346a.442.442,0,0,0,.051-.076,2.369,2.369,0,0,0-.237-2.76c-.156-.183-.295-.339-.345-.388a.422.422,0,0,0-.1-.071,3.029,3.029,0,0,0-1.389-.358,2.937,2.937,0,0,0-1.816.666.4.4,0,0,0-.071.07c-.041.052-.172.231-.288.4A2.2,2.2,0,0,0,297.624,19.048ZM298,16.066a.42.42,0,0,0,.034-.042,1.356,1.356,0,0,1,.4-.292A1.916,1.916,0,0,1,299.8,15.6a1.64,1.64,0,0,1,.679.42,1.5,1.5,0,0,1,.365,1.505,1.465,1.465,0,0,1-.189.413,1.789,1.789,0,0,1-1.457.764,1.768,1.768,0,0,1-1.613-.988A1.457,1.457,0,0,1,298,16.066Z" transform="translate(-283.934 -14.737)" fill="#e8e8e8"/>
      <path id="Path_524" data-name="Path 524" d="M247.548,139.244a.423.423,0,0,0-.058-.17,1.609,1.609,0,0,0-1.659-.8h-.007l-.031,0c-.524,0-1.048-.006-1.573-.012s-1.054-.012-1.58-.012a34.074,34.074,0,0,0-3.54.154.44.44,0,0,0-.163.019,1.771,1.771,0,0,0-1.108.95.539.539,0,0,0-.042.137.435.435,0,0,0-.038.173c-.005.267-.012.535-.018.8-.009.388-.017.782-.023,1.177h.223l.414.006.111,0,.112,0c.006-.409.014-.816.023-1.218q.008-.363.016-.725a.919.919,0,0,1,.532-.473,34,34,0,0,1,3.505-.151c.525,0,1.051.006,1.576.012s1.031.011,1.533.011a.433.433,0,0,0,.107,0,1.576,1.576,0,0,1,.189-.012.742.742,0,0,1,.7.384c.008.013.017.026.025.038.11,1.432.168,2.915.178,4.529-.359,0-.765.005-1.172.024-.025-.924-.072-2.114-.114-2.878a.434.434,0,0,0-.448-.413.427.427,0,0,0-.31.126.393.393,0,0,0-.1.3c.051.908.113,2.514.129,3.542-.682,0-1.365-.01-2.047-.016l-1.429-.011c0,.037.008.075.012.112s.006.074.01.112q.016.184.025.37c0,.037,0,.074.006.112s0,.074,0,.112c.458,0,.916.005,1.374.01.852.009,1.7.017,2.555.019h0a.381.381,0,0,0,.342-.193.449.449,0,0,0,.01-.409v-.077c.461-.021.921-.024,1.351-.024a.4.4,0,0,0,.215-.06h.023a.441.441,0,0,0,.313-.124.406.406,0,0,0,.116-.3c0-1.759-.065-3.376-.186-4.944A.436.436,0,0,0,247.548,139.244Zm-1.753-.855h0Z" transform="translate(-227.503 -132.952)" fill="#e8e8e8"/>
      <path id="Path_525" data-name="Path 525" d="M288.958,200.334a2.563,2.563,0,0,1,.416.355c.038.04.078.079.112.121s.076.1.113.152c0-.524-.008-1.016-.009-1.384a.44.44,0,0,0-.744-.3.407.407,0,0,0-.116.3c0,.179,0,.389,0,.616.038.021.076.043.112.066S288.921,200.309,288.958,200.334Z" transform="translate(-276.337 -191.249)" fill="#e8e8e8"/>
      <path id="Path_526" data-name="Path 526" d="M13.361,236.178c0-.094,0-.187-.007-.28,0-.038,0-.075,0-.112s0-.074,0-.112c0-.124-.009-.247-.015-.37,0-.038-.006-.074-.008-.112s-.006-.075-.008-.112c-.007-.1-.012-.19-.021-.285,0-.036-.009-.072-.012-.109a4.588,4.588,0,0,0-.082-.526c-.01-.044-.023-.086-.035-.129a2.213,2.213,0,0,0-.114-.324,1.587,1.587,0,0,0-.23-.372,1.446,1.446,0,0,0-.188-.179c-.036-.03-.073-.059-.112-.087s-.074-.049-.112-.073a2.408,2.408,0,0,0-.673-.281,1.807,1.807,0,0,0-.3-.051c-.123-.009-.247-.011-.371-.013l-.11,0h-.114c-.138,0-.277,0-.415.005l-.111,0-.112,0c-.185,0-.369.008-.551.006l-.962-.01-.953-.01c-1.277-.011-2.555-.011-3.831.046-.716.032-1.432.082-2.145.158a.437.437,0,0,0-.179.018,2.255,2.255,0,0,0-1.416,1.211.581.581,0,0,0-.048.169.437.437,0,0,0-.048.194c-.041,2.073-.127,4.144,0,6.216a.421.421,0,0,0,.233.363.374.374,0,0,0,.266.1c.82,0,1.64,0,2.46-.042,0,.275,0,.53,0,.751a.432.432,0,0,0,.046.2.368.368,0,0,0,.365.253c2.319,0,4.638.048,6.957.051a.405.405,0,0,0,.329-.629c0-.092,0-.189,0-.289.664-.034,1.329-.039,1.994-.039a.38.38,0,0,0,.25-.086.418.418,0,0,0,.506-.414c0-1.357-.057-2.71-.1-4.067C13.371,236.6,13.366,236.389,13.361,236.178Zm-2.652,4.433c-.034-1.355-.1-3.054-.16-4.07-.031-.556-.9-.559-.867,0,.071,1.263.16,3.585.178,4.985-1.987-.007-3.974-.038-5.961-.045-.006-1.395-.033-3.639-.035-4.867a.434.434,0,0,0-.867,0c0,.914.017,2.392.027,3.664-.7.032-1.4.04-2.1.041-.1-1.947-.023-3.894.016-5.843a1.411,1.411,0,0,1,.844-.757c1.23-.13,2.466-.183,3.7-.2.78-.011,1.561-.008,2.341,0l1.381.014c.335,0,.669,0,1,0h.223l.365,0h.273a2.411,2.411,0,0,1,.485.045.989.989,0,0,1,.5.252,1.054,1.054,0,0,1,.181.235,1.04,1.04,0,0,1,.07.146q.02.054.035.109c.01.037.019.074.026.112a2.259,2.259,0,0,1,.034.3c0,.023,0,.046,0,.069s0,.074.007.111,0,.075.007.113c0,.02,0,.04,0,.059.011.177.021.355.033.532s.022.336.03.5c0,0,0,.009,0,.014.046.945.076,1.891.1,2.836.013.536.018,1.072.021,1.607C11.973,240.571,11.341,240.578,10.709,240.611Z" transform="translate(-0.004 -223.289)" fill="#e8e8e8"/>
    </g>
  </g>
</svg>
