<svg xmlns="http://www.w3.org/2000/svg" width="24" height="17.619" viewBox="0 0 24 17.619">
  <g id="team" transform="translate(0 -68.066)">
    <g id="Group_249" data-name="Group 249" transform="translate(18.41 75.584)">
      <g id="Group_248" data-name="Group 248">
        <path id="Path_513" data-name="Path 513" d="M395.515,228.862a6.86,6.86,0,0,0-2.413-.413.352.352,0,1,0,0,.7,6.071,6.071,0,0,1,2.1.339.352.352,0,1,0,.314-.629Z" transform="translate(-392.751 -228.449)" fill="#e8e8e8"/>
      </g>
    </g>
    <g id="Group_251" data-name="Group 251" transform="translate(0 68.066)">
      <g id="Group_250" data-name="Group 250" transform="translate(0 0)">
        <path id="Path_514" data-name="Path 514" d="M22.927,81l-1.452-.415a.147.147,0,0,1-.106-.141v-.485a2.643,2.643,0,0,0,.336-.276,2.586,2.586,0,0,0,.792-1.871v-.669l.14-.281a2.243,2.243,0,0,0,.236-1V74.056a.352.352,0,0,0-.352-.352H19.138a2.234,2.234,0,0,0-2.231,2.231v.021a1.865,1.865,0,0,0,.2.83l.18.36v.574a2.743,2.743,0,0,0,1.128,2.218v.508c0,.078,0,.111-.29.194l-.708.2L15.362,80.1a.351.351,0,0,0-.1-.269l-.655-.688V77.985c.069-.057.137-.116.2-.178a4.126,4.126,0,0,0,1.3-3v-.922a4.064,4.064,0,0,0,.376-1.709V68.418a.352.352,0,0,0-.352-.352H10.877a3.363,3.363,0,0,0-3.359,3.359v.752a4.064,4.064,0,0,0,.376,1.709v.794a4.3,4.3,0,0,0,1.5,3.279V79.14l-.655.688a.351.351,0,0,0-.1.269l-2.163.787a1.844,1.844,0,0,0-.435.228l-.34-.17a2.685,2.685,0,0,0,1.347-1.09.351.351,0,0,0,0-.314,6.245,6.245,0,0,1-.309-2.183c-.008-.249-.016-.483-.031-.692A3.058,3.058,0,0,0,3.735,73.7,3.058,3.058,0,0,0,.753,76.662c-.015.209-.023.444-.031.692a6.246,6.246,0,0,1-.309,2.182.351.351,0,0,0,0,.314,2.685,2.685,0,0,0,1.348,1.089l-.943.472A1.472,1.472,0,0,0,0,82.736v2.6a.352.352,0,1,0,.7,0v-2.6a.772.772,0,0,1,.429-.694l1.175-.587.409.388a1.478,1.478,0,0,0,2.038,0l.409-.388.383.192a1.851,1.851,0,0,0-.283.982v2.706a.352.352,0,1,0,.7,0V82.627a1.156,1.156,0,0,1,.758-1.083L9,80.715l.949,1.424a.725.725,0,0,0,.534.32q.036,0,.073,0a.725.725,0,0,0,.514-.213l.579-.579v3.662a.352.352,0,1,0,.7,0V81.671l.579.579a.724.724,0,0,0,.514.213q.036,0,.072,0a.725.725,0,0,0,.534-.32L15,80.715l2.281.829a1.156,1.156,0,0,1,.758,1.083v2.706a.352.352,0,1,0,.7,0V82.627a1.858,1.858,0,0,0-.52-1.286l.087-.025a1.928,1.928,0,0,0,.327-.118l.9.9v3.237a.352.352,0,1,0,.7,0V82.1l.891-.891a.837.837,0,0,0,.15.059l1.452.415a.779.779,0,0,1,.563.746v2.908a.352.352,0,1,0,.7,0V82.425A1.486,1.486,0,0,0,22.927,81ZM2.255,80.381a2.527,2.527,0,0,1-1.128-.724,3.875,3.875,0,0,0,.2-.842,2.621,2.621,0,0,0,.928,1.145Zm2.014.951a.776.776,0,0,1-1.069,0l-.327-.311a.727.727,0,0,0,.085-.343V80.3a2.614,2.614,0,0,0,1.552,0v.374a.727.727,0,0,0,.085.343Zm-.535-1.614a1.906,1.906,0,0,1-1.9-1.9.349.349,0,0,0-.409-.346l0-.09c.008-.242.015-.47.029-.666a2.61,2.61,0,0,1,.711-1.639,2.184,2.184,0,0,1,3.14,0,2.61,2.61,0,0,1,.711,1.639c.014.2.021.424.029.666l0,.063A3.159,3.159,0,0,0,4.31,76.172a4.412,4.412,0,0,0-1.337-.212.352.352,0,0,0-.243.107l-.634.658a.352.352,0,1,0,.506.488l.528-.547a2.844,2.844,0,0,1,2.486,1.445A1.9,1.9,0,0,1,3.735,79.719Zm1.479.664v-.419a2.6,2.6,0,0,0,.928-1.146,3.87,3.87,0,0,0,.2.84A2.54,2.54,0,0,1,5.214,80.382Zm3.383-5.7v-.872a.352.352,0,0,0-.035-.153,3.372,3.372,0,0,1-.341-1.477v-.752a2.659,2.659,0,0,1,2.656-2.656h4.911v3.407a3.372,3.372,0,0,1-.341,1.477.352.352,0,0,0-.035.153v1a3.375,3.375,0,0,1-1.078,2.487,3.5,3.5,0,0,1-.27.229l-.006,0a3.38,3.38,0,0,1-2.281.681A3.482,3.482,0,0,1,8.6,74.679Zm1.979,7.074a.022.022,0,0,1-.02.007.022.022,0,0,1-.018-.011l-1.093-1.64.352-.37,1.659,1.134ZM12,80.4l-1.9-1.3v-.656a3.958,3.958,0,0,0,1.631.471q.139.009.277.009a4.072,4.072,0,0,0,1.9-.466v.642Zm1.465,1.353a.022.022,0,0,1-.018.011.022.022,0,0,1-.02-.007l-.88-.88,1.659-1.134.352.37Zm6.42-.3-.8-.8a.964.964,0,0,0,.022-.209V80.3a2.465,2.465,0,0,0,.7.123h.081a2.611,2.611,0,0,0,.775-.117v.142a.84.84,0,0,0,.025.2Zm1.326-2.271a1.89,1.89,0,0,1-1.385.537,1.968,1.968,0,0,1-1.845-2v-.657a.351.351,0,0,0-.037-.157l-.217-.434a1.158,1.158,0,0,1-.122-.515v-.021a1.53,1.53,0,0,1,1.528-1.528h3.032v1.46a1.536,1.536,0,0,1-.161.683l-.177.355a.351.351,0,0,0-.037.157v.752A1.889,1.889,0,0,1,21.215,79.181Z" transform="translate(0 -68.066)" fill="#e8e8e8"/>
      </g>
    </g>
    <g id="Group_253" data-name="Group 253" transform="translate(21.793 82.726)">
      <g id="Group_252" data-name="Group 252">
        <path id="Path_515" data-name="Path 515" d="M465.275,380.814a.352.352,0,0,0-.352.352v2.255a.352.352,0,1,0,.7,0v-2.255A.352.352,0,0,0,465.275,380.814Z" transform="translate(-464.923 -380.814)" fill="#e8e8e8"/>
      </g>
    </g>
    <g id="Group_255" data-name="Group 255" transform="translate(1.504 83.191)">
      <g id="Group_254" data-name="Group 254" transform="translate(0 0)">
        <path id="Path_516" data-name="Path 516" d="M32.429,390.728a.352.352,0,0,0-.352.352v1.791a.352.352,0,0,0,.7,0V391.08A.352.352,0,0,0,32.429,390.728Z" transform="translate(-32.077 -390.728)" fill="#e8e8e8"/>
      </g>
    </g>
    <g id="Group_257" data-name="Group 257" transform="translate(9.022 71.26)">
      <g id="Group_256" data-name="Group 256" transform="translate(0 0)">
        <path id="Path_517" data-name="Path 517" d="M198.323,137.247c-1.33-1.33-4.112-1.075-5.246-.9a.722.722,0,0,0-.617.719v.81a.352.352,0,1,0,.7,0v-.81a.023.023,0,0,1,.018-.024,11.108,11.108,0,0,1,2.284-.112,3.629,3.629,0,0,1,2.36.818.352.352,0,0,0,.5-.5Z" transform="translate(-192.46 -136.203)" fill="#e8e8e8"/>
      </g>
    </g>
    <g id="Group_259" data-name="Group 259" transform="translate(7.518 83.478)">
      <g id="Group_258" data-name="Group 258">
        <path id="Path_518" data-name="Path 518" d="M160.736,396.853a.352.352,0,0,0-.352.352v1.5a.352.352,0,0,0,.7,0v-1.5A.352.352,0,0,0,160.736,396.853Z" transform="translate(-160.384 -396.853)" fill="#e8e8e8"/>
      </g>
    </g>
    <g id="Group_261" data-name="Group 261" transform="translate(15.788 83.478)">
      <g id="Group_260" data-name="Group 260">
        <path id="Path_519" data-name="Path 519" d="M337.158,396.853a.352.352,0,0,0-.352.352v1.5a.352.352,0,0,0,.7,0v-1.5A.352.352,0,0,0,337.158,396.853Z" transform="translate(-336.806 -396.853)" fill="#e8e8e8"/>
      </g>
    </g>
  </g>
</svg>
