<svg id="information" xmlns="http://www.w3.org/2000/svg" width="17.396" height="17.396" viewBox="0 0 17.396 17.396">
  <g id="Group_263" data-name="Group 263">
    <g id="Group_262" data-name="Group 262">
      <circle id="Ellipse_25" data-name="Ellipse 25" cx="0.849" cy="0.849" r="0.849" transform="translate(7.849 12.011)" fill="#d9d9d9"/>
      <path id="Path_520" data-name="Path 520" d="M8.7,0a8.7,8.7,0,1,0,8.7,8.7A8.693,8.693,0,0,0,8.7,0Zm0,16.037A7.339,7.339,0,1,1,16.037,8.7,7.335,7.335,0,0,1,8.7,16.037Z" fill="#d9d9d9"/>
      <path id="Path_521" data-name="Path 521" d="M178.718,128.5A2.721,2.721,0,0,0,176,131.218a.68.68,0,0,0,1.359,0,1.359,1.359,0,1,1,1.359,1.359.68.68,0,0,0-.68.68v1.7a.68.68,0,0,0,1.359,0V133.85a2.718,2.718,0,0,0-.68-5.35Z" transform="translate(-170.02 -124.134)" fill="#d9d9d9"/>
    </g>
  </g>
</svg>
