<svg xmlns="http://www.w3.org/2000/svg" xmlns:xlink="http://www.w3.org/1999/xlink" width="103.053" height="100.031" viewBox="0 0 103.053 100.031">
  <defs>
    <filter id="Rectangle_118" x="0" y="0" width="103.053" height="100.031" filterUnits="userSpaceOnUse">
      <feOffset dy="3" input="SourceAlpha"/>
      <feGaussianBlur stdDeviation="3" result="blur"/>
      <feFlood flood-opacity="0.161"/>
      <feComposite operator="in" in2="blur"/>
      <feComposite in="SourceGraphic"/>
    </filter>
  </defs>
  <g id="Group_277" data-name="Group 277" transform="translate(2139.053 -7641.474)">
    <g transform="matrix(1, 0, 0, 1, -2139.05, 7641.47)" filter="url(#Rectangle_118)">
      <rect id="Rectangle_118-2" data-name="Rectangle 118" width="85.053" height="82.031" rx="20" transform="translate(9 6)" fill="#decb8c"/>
    </g>
    <path id="XMLID_3_" d="M81.783,39.722,80,30.808a1.162,1.162,0,0,0-.7-.835,1.274,1.274,0,0,0-1.123.064l-8.214,4.684a1.12,1.12,0,0,0-.531,1.33,1.213,1.213,0,0,0,1.242.8l3.208-.212c-3.063,3.894-7.674,5.493-12.962,5.9v-25.5h2.641a2.634,2.634,0,0,0,1.521.483,2.426,2.426,0,1,0,0-4.845,2.636,2.636,0,0,0-1.522.484h-2.64v-3.5a5.2,5.2,0,0,0,2.5-4.389,5.58,5.58,0,0,0-11.142,0,5.2,5.2,0,0,0,2.5,4.389v3.5h-2.64a2.635,2.635,0,0,0-1.522-.484,2.426,2.426,0,1,0,0,4.845,2.634,2.634,0,0,0,1.521-.483h2.641v25.5c-5.288-.41-9.9-2.008-12.962-5.9l3.208.212a1.213,1.213,0,0,0,1.242-.8,1.12,1.12,0,0,0-.531-1.33l-8.214-4.684a1.274,1.274,0,0,0-1.123-.064,1.162,1.162,0,0,0-.7.835l-1.781,8.914a1.135,1.135,0,0,0,.695,1.261,1.258,1.258,0,0,0,1.459-.344L37.99,38.3c3.746,5.738,9.637,10.543,16.431,11.79l2.571,2.432a1.264,1.264,0,0,0,1.717,0l2.571-2.432c6.794-1.246,12.686-6.051,16.432-11.79l1.916,2.338a1.258,1.258,0,0,0,1.459.344A1.135,1.135,0,0,0,81.783,39.722ZM57.852,3.877A1.436,1.436,0,0,1,59.324,5.27a1.475,1.475,0,0,1-2.944,0A1.436,1.436,0,0,1,57.852,3.877Z" transform="translate(-2145.24 7661.932)"/>
    <rect id="Rectangle_155" data-name="Rectangle 155" width="85.053" height="82.031" rx="20" transform="translate(-2130.053 7647.474)" fill="rgba(83,83,83,0.83)"/>
  </g>
</svg>
