<svg xmlns="http://www.w3.org/2000/svg" width="70.094" height="81.765" viewBox="0 0 70.094 81.765">
  <path id="XMLID_3_" d="M103.962,61.444l-2.606-13.789a1.778,1.778,0,0,0-2.663-1.192L86.675,53.708A1.777,1.777,0,0,0,87.715,57l4.694-.327c-4.482,6.024-11.228,8.5-18.966,9.13V26.356h3.864a3.747,3.747,0,1,0,0-6H73.443V14.94a8.151,8.151,0,1,0-8.993,0v5.418H60.587a3.747,3.747,0,1,0,0,6H64.45V65.8c-7.738-.634-14.484-3.106-18.966-9.13L50.178,57a1.777,1.777,0,0,0,1.041-3.294L39.2,46.463a1.778,1.778,0,0,0-2.663,1.192L33.931,61.444a1.777,1.777,0,0,0,3.151,1.418l2.8-3.616c5.482,8.877,14.1,16.308,24.042,18.237l3.762,3.762a1.777,1.777,0,0,0,2.512,0l3.762-3.762c9.941-1.928,18.562-9.361,24.043-18.237l2.8,3.616a1.778,1.778,0,0,0,3.151-1.418ZM68.947,6a2.154,2.154,0,1,1-2.154,2.154A2.157,2.157,0,0,1,68.947,6Z" transform="translate(-33.899)"/>
</svg>
