<svg xmlns="http://www.w3.org/2000/svg" xmlns:xlink="http://www.w3.org/1999/xlink" width="49.679" height="49.679" viewBox="0 0 49.679 49.679">
  <defs>
    <filter id="Rectangle_118" x="0" y="0" width="49.679" height="49.679" filterUnits="userSpaceOnUse">
      <feOffset dy="3" input="SourceAlpha"/>
      <feGaussianBlur stdDeviation="3" result="blur"/>
      <feFlood flood-opacity="0.161"/>
      <feComposite operator="in" in2="blur"/>
      <feComposite in="SourceGraphic"/>
    </filter>
  </defs>
  <g id="Group_271" data-name="Group 271" transform="translate(1806.529 -7447.16)">
    <g transform="matrix(1, 0, 0, 1, -1806.53, 7447.16)" filter="url(#Rectangle_118)">
      <rect id="Rectangle_118-2" data-name="Rectangle 118" width="31.679" height="31.679" rx="15.84" transform="translate(9 6)" fill="#decb8c"/>
    </g>
    <path id="XMLID_3_" d="M51.735,15.641l-.663-3.51a.453.453,0,0,0-.678-.3l-3.059,1.844a.452.452,0,0,0,.265.839l1.195-.083a6.294,6.294,0,0,1-4.828,2.324V6.709h.984a.954.954,0,1,0,0-1.527h-.983V3.8a2.075,2.075,0,1,0-2.289,0V5.182h-.983a.954.954,0,1,0,0,1.527h.984V16.751a6.294,6.294,0,0,1-4.828-2.324l1.195.083a.452.452,0,0,0,.265-.839l-3.059-1.844a.453.453,0,0,0-.678.3l-.663,3.51a.452.452,0,0,0,.8.361l.714-.921a9.779,9.779,0,0,0,6.12,4.642l.958.958a.452.452,0,0,0,.64,0l.958-.958a9.778,9.778,0,0,0,6.12-4.642l.714.921a.452.452,0,0,0,.8-.361ZM42.821,1.527a.548.548,0,1,1-.548.548A.549.549,0,0,1,42.821,1.527Z" transform="translate(-1824.459 7458.546)"/>
  </g>
</svg>
