<svg id="heart" xmlns="http://www.w3.org/2000/svg" width="85.365" height="74.731" viewBox="0 0 85.365 74.731">
  <path id="Path_498" data-name="Path 498" d="M77.894,24.875c-12.642-12.645-25.177-7.119-35.211,1.9-10.039-9.02-22.47-14.644-35.214-1.9a25.139,25.139,0,0,0,0,35.764c35.1,31.578,35.1,31.522,35.1,31.522s.051.1,35.326-31.522A25.134,25.134,0,0,0,77.894,24.875Z" transform="translate(0 -17.429)" fill="#e2574c"/>
  <path id="Path_499" data-name="Path 499" d="M139.865,26.867l-.024-.019V92.178c.563-.475,4.7-4.071,35.235-31.447a25.131,25.131,0,0,0,0-35.761C162.434,12.325,149.9,17.851,139.865,26.867Z" transform="translate(-97.184 -17.524)" fill="#cb4e44"/>
</svg>
