<svg xmlns="http://www.w3.org/2000/svg" xmlns:xlink="http://www.w3.org/1999/xlink" width="103.053" height="100.031" viewBox="0 0 103.053 100.031">
  <defs>
    <filter id="Rectangle_118" x="0" y="0" width="103.053" height="100.031" filterUnits="userSpaceOnUse">
      <feOffset dy="3" input="SourceAlpha"/>
      <feGaussianBlur stdDeviation="3" result="blur"/>
      <feFlood flood-opacity="0.161"/>
      <feComposite operator="in" in2="blur"/>
      <feComposite in="SourceGraphic"/>
    </filter>
    <filter id="Rectangle_152" x="0" y="0" width="103.053" height="100.031" filterUnits="userSpaceOnUse">
      <feOffset dy="3" input="SourceAlpha"/>
      <feGaussianBlur stdDeviation="3" result="blur-2"/>
      <feFlood flood-opacity="0.161"/>
      <feComposite operator="in" in2="blur-2"/>
      <feComposite in="SourceGraphic"/>
    </filter>
  </defs>
  <g id="Group_274" data-name="Group 274" transform="translate(2436.188 -7641.474)">
    <g transform="matrix(1, 0, 0, 1, -2436.19, 7641.47)" filter="url(#Rectangle_118)">
      <rect id="Rectangle_118-2" data-name="Rectangle 118" width="85.053" height="82.031" rx="20" transform="translate(9 6)" fill="#decb8c"/>
    </g>
    <g id="heart" transform="translate(-2413.804 7662.971)">
      <path id="Path_498" data-name="Path 498" d="M53.236,22.518c-8.64-8.642-17.207-4.866-24.065,1.3C22.31,17.652,13.814,13.808,5.1,22.518a17.181,17.181,0,0,0,0,24.442C29.1,68.541,29.091,68.5,29.091,68.5s.035.071,24.143-21.543A17.177,17.177,0,0,0,53.236,22.518Z" transform="translate(0 -17.429)" fill="#e2574c"/>
      <path id="Path_499" data-name="Path 499" d="M139.857,23.923l-.016-.013V68.558c.385-.325,3.214-2.782,24.081-21.492a17.176,17.176,0,0,0,0-24.44C155.282,13.984,146.717,17.76,139.857,23.923Z" transform="translate(-110.688 -17.537)" fill="#cb4e44"/>
    </g>
    <g transform="matrix(1, 0, 0, 1, -2436.19, 7641.47)" filter="url(#Rectangle_152)">
      <rect id="Rectangle_152-2" data-name="Rectangle 152" width="85.053" height="82.031" rx="20" transform="translate(9 6)" fill="rgba(83,83,83,0.83)"/>
    </g>
  </g>
</svg>
