<svg xmlns="http://www.w3.org/2000/svg" width="73.858" height="76.301" viewBox="0 0 73.858 76.301">
  <path id="spades" d="M71.909,32.39C68.088,25.637,58.707,12.483,38.79.248a1.755,1.755,0,0,0-1.8,0C17.8,12.037,8.387,24.033,3.868,32.022a21.037,21.037,0,0,0-2.02,16.654,19.855,19.855,0,0,0,10.334,12,15.086,15.086,0,0,0,7.46,1.621h.022a15.839,15.839,0,0,0,1.624-.169,20.547,20.547,0,0,0,11.18-5.61c-.53,5.15-1.53,10.714-4.449,14.354a3.355,3.355,0,0,0-.424,3.577A3.254,3.254,0,0,0,30.555,76.3H45.24a3.246,3.246,0,0,0,2.952-1.847,3.358,3.358,0,0,0-.426-3.576c-3.094-3.852-4.018-10.126-4.428-14.041a20.644,20.644,0,0,0,9.035,5.111,23.772,23.772,0,0,0,3.789.717A15.044,15.044,0,0,0,63.6,61.042a19.851,19.851,0,0,0,10.334-12A21.051,21.051,0,0,0,71.909,32.39ZM69.061,47.552a14.811,14.811,0,0,1-7.729,8.928,9.749,9.749,0,0,1-4.858,1.091H56.38l-.094-.014a24.119,24.119,0,0,1-4.13-.985,16.692,16.692,0,0,1-5.722-3.346,1.273,1.273,0,1,1,1.677-1.915,14.2,14.2,0,0,0,4.85,2.845,21.774,21.774,0,0,0,3.586.866A7.2,7.2,0,0,0,60.2,54.2a12.285,12.285,0,0,0,6.426-7.394A13.5,13.5,0,0,0,65.262,36.15C62.068,30.5,54.288,19.5,37.886,8.723c-16.646,10.9-24.283,21.6-27.37,27.059A13.487,13.487,0,0,0,9.151,46.437a12.294,12.294,0,0,0,6.426,7.4,7.429,7.429,0,0,0,3.9.825c.033-.006.372-.037.852-.116a14.591,14.591,0,0,0,6.877-3.161,1.273,1.273,0,0,1,1.613,1.969,17.15,17.15,0,0,1-8.081,3.706c-.589.1-1.006.132-1.17.144a9.991,9.991,0,0,1-5.125-1.087,14.8,14.8,0,0,1-7.729-8.931A16,16,0,0,1,8.3,34.53c3.244-5.735,11.314-17.05,28.9-28.395l.691-.447.69.447C55.909,17.351,64.123,28.97,67.477,34.9A16.005,16.005,0,0,1,69.061,47.552Z" transform="translate(-0.959 0)"/>
</svg>
