<svg xmlns="http://www.w3.org/2000/svg" xmlns:xlink="http://www.w3.org/1999/xlink" width="49.679" height="49.679" viewBox="0 0 49.679 49.679">
  <defs>
    <filter id="Rectangle_118" x="0" y="0" width="49.679" height="49.679" filterUnits="userSpaceOnUse">
      <feOffset dy="3" input="SourceAlpha"/>
      <feGaussianBlur stdDeviation="3" result="blur"/>
      <feFlood flood-opacity="0.161"/>
      <feComposite operator="in" in2="blur"/>
      <feComposite in="SourceGraphic"/>
    </filter>
  </defs>
  <g id="Group_270" data-name="Group 270" transform="translate(1842.221 -7447.16)">
    <g transform="matrix(1, 0, 0, 1, -1842.22, 7447.16)" filter="url(#Rectangle_118)">
      <rect id="Rectangle_118-2" data-name="Rectangle 118" width="31.679" height="31.679" rx="15.84" transform="translate(9 6)" fill="#decb8c"/>
    </g>
    <path id="spades" d="M19.02,8.245A23.681,23.681,0,0,0,10.589.063a.447.447,0,0,0-.459,0c-4.884,3-7.28,6.054-8.431,8.088a5.355,5.355,0,0,0-.514,4.24,5.054,5.054,0,0,0,2.63,3.054,3.84,3.84,0,0,0,1.9.413h.006a4.032,4.032,0,0,0,.414-.043A5.23,5.23,0,0,0,8.98,14.386,7.142,7.142,0,0,1,7.847,18.04a.854.854,0,0,0-.108.911.828.828,0,0,0,.754.472h3.738a.826.826,0,0,0,.752-.47.855.855,0,0,0-.109-.91,7.247,7.247,0,0,1-1.127-3.574,5.255,5.255,0,0,0,2.3,1.3,6.051,6.051,0,0,0,.964.182,3.83,3.83,0,0,0,1.893-.413,5.053,5.053,0,0,0,2.63-3.054A5.359,5.359,0,0,0,19.02,8.245ZM18.3,12.1a3.77,3.77,0,0,1-1.967,2.273,2.482,2.482,0,0,1-1.237.278h-.024l-.024,0a6.139,6.139,0,0,1-1.051-.251,4.249,4.249,0,0,1-1.457-.852.324.324,0,1,1,.427-.487,3.614,3.614,0,0,0,1.235.724,5.542,5.542,0,0,0,.913.22,1.832,1.832,0,0,0,.93-.21,3.127,3.127,0,0,0,1.636-1.882A3.435,3.435,0,0,0,17.328,9.2,21.173,21.173,0,0,0,10.359,2.22,20.977,20.977,0,0,0,3.392,9.109a3.433,3.433,0,0,0-.347,2.712A3.129,3.129,0,0,0,4.681,13.7a1.891,1.891,0,0,0,.994.21c.008,0,.095-.009.217-.029a3.714,3.714,0,0,0,1.751-.8.324.324,0,0,1,.411.5A4.366,4.366,0,0,1,6,14.524c-.15.024-.256.034-.3.037a2.543,2.543,0,0,1-1.3-.277,3.769,3.769,0,0,1-1.967-2.273,4.074,4.074,0,0,1,.4-3.221,21.772,21.772,0,0,1,7.356-7.228l.176-.114.176.114a21.962,21.962,0,0,1,7.356,7.322A4.074,4.074,0,0,1,18.3,12.1Z" transform="translate(-1827.741 7459.285)"/>
  </g>
</svg>
