<svg xmlns="http://www.w3.org/2000/svg" width="17.174" height="20.191" viewBox="0 0 17.174 20.191">
  <g id="avatar" transform="translate(-37.694 -2.551)">
    <g id="Group_247" data-name="Group 247" transform="translate(37.694 2.551)">
      <path id="Path_511" data-name="Path 511" d="M141.372,10.879h.134A3.858,3.858,0,0,0,144.454,9.6c1.61-1.815,1.342-4.925,1.313-5.222A4.266,4.266,0,0,0,143.739.59,4.649,4.649,0,0,0,141.489,0h-.071a4.656,4.656,0,0,0-2.249.573,4.268,4.268,0,0,0-2.053,3.809c-.029.3-.3,3.408,1.313,5.222A3.843,3.843,0,0,0,141.372,10.879Zm-3.14-6.393c0-.013,0-.025,0-.033.138-3,2.266-3.32,3.178-3.32h.05c1.129.025,3.048.485,3.178,3.32a.081.081,0,0,0,0,.033c0,.029.3,2.872-1.033,4.369a2.74,2.74,0,0,1-2.153.895h-.042a2.731,2.731,0,0,1-2.149-.895C137.944,7.367,138.228,4.511,138.232,4.486Z" transform="translate(-132.858)" fill="#e8e8e8"/>
      <path id="Path_512" data-name="Path 512" d="M53.246,264.444v-.013c0-.033,0-.067,0-.1-.025-.828-.079-2.764-1.894-3.383l-.042-.013a12.063,12.063,0,0,1-3.47-1.581.564.564,0,0,0-.648.924A13.022,13.022,0,0,0,51,262.019c.974.347,1.083,1.388,1.112,2.341a.84.84,0,0,0,0,.1,7.589,7.589,0,0,1-.088,1.292,15.387,15.387,0,0,1-7.371,1.714,15.477,15.477,0,0,1-7.376-1.718,7.185,7.185,0,0,1-.088-1.292c0-.033,0-.067,0-.1.029-.953.138-1.994,1.112-2.341a13.143,13.143,0,0,0,3.817-1.744.564.564,0,0,0-.648-.924,11.932,11.932,0,0,1-3.47,1.58l-.042.013c-1.815.623-1.869,2.559-1.894,3.383a.841.841,0,0,1,0,.1v.013a6.412,6.412,0,0,0,.213,1.894.536.536,0,0,0,.217.263,15.814,15.814,0,0,0,8.162,2,15.862,15.862,0,0,0,8.162-2,.559.559,0,0,0,.217-.263A6.727,6.727,0,0,0,53.246,264.444Z" transform="translate(-36.073 -248.405)" fill="#e8e8e8"/>
    </g>
  </g>
</svg>
