<svg xmlns="http://www.w3.org/2000/svg" width="28.359" height="24.16" viewBox="0 0 28.359 24.16">
  <g id="speaker_mute" transform="translate(0 -3.998)">
    <path id="Path_552" data-name="Path 552" d="M41.469,21.726,45.3,17.9a.525.525,0,0,0-.743-.743l-3.83,3.83-3.83-3.83a.525.525,0,0,0-.743.743l3.83,3.83-3.83,3.83a.525.525,0,1,0,.743.743l3.83-3.83,3.83,3.83a.525.525,0,0,0,.743-.743Z" transform="translate(-17.094 -6.174)" fill="#e8e8e8"/>
    <path id="Path_553" data-name="Path 553" d="M14.917,4.209a1.591,1.591,0,0,0-1.623.023.488.488,0,0,0-.068.049L6.11,10.3H.525A.525.525,0,0,0,0,10.826V20.8a.525.525,0,0,0,.525.525l5.572,0L13.21,27.86a.513.513,0,0,0,.085.063,1.591,1.591,0,0,0,1.623.023,1.64,1.64,0,0,0,.838-1.447V5.656A1.641,1.641,0,0,0,14.917,4.209ZM14.7,26.5a.6.6,0,0,1-.3.533.551.551,0,0,1-.525.014L6.827,20.571V18.179a.525.525,0,0,0-1.05,0v2.1l-4.727,0V11.351H5.777v2.1a.525.525,0,0,0,1.05,0V11.07l7.04-5.955a.549.549,0,0,1,.534.009.6.6,0,0,1,.3.533Z" fill="#e8e8e8"/>
  </g>
</svg>
