<svg xmlns="http://www.w3.org/2000/svg" width="26.384" height="23.33" viewBox="0 0 26.384 23.33">
  <g id="speaker" transform="translate(0 -3.011)">
    <path id="Path_527" data-name="Path 527" d="M14.4,3.215a1.536,1.536,0,0,0-1.567.022.471.471,0,0,0-.066.047L5.9,9.1H.507A.507.507,0,0,0,0,9.6V19.24a.507.507,0,0,0,.507.507l5.381,0,6.868,6.309a.5.5,0,0,0,.082.061,1.536,1.536,0,0,0,1.567.022,1.583,1.583,0,0,0,.809-1.4V4.612A1.585,1.585,0,0,0,14.4,3.215ZM14.2,24.74a.582.582,0,0,1-.294.515.532.532,0,0,1-.507.013L6.593,19.015V16.7a.507.507,0,1,0-1.014,0v2.027l-4.564,0V10.112H5.578V12.14a.507.507,0,1,0,1.014,0V9.84l6.8-5.751a.53.53,0,0,1,.515.009.582.582,0,0,1,.294.514Z" fill="#e8e8e8"/>
    <path id="Path_528" data-name="Path 528" d="M38.145,7.04A.507.507,0,1,0,37.819,8a8.866,8.866,0,0,1,.012,16.79.507.507,0,0,0,.164.987.5.5,0,0,0,.164-.027A9.881,9.881,0,0,0,38.145,7.04Z" transform="translate(-18.47 -1.972)" fill="#e8e8e8"/>
    <path id="Path_529" data-name="Path 529" d="M37.591,19.105a6.877,6.877,0,0,0-4.944-6.573.507.507,0,1,0-.281.975,5.827,5.827,0,0,1,0,11.2.507.507,0,0,0,.14.994.516.516,0,0,0,.14-.02A6.876,6.876,0,0,0,37.591,19.105Z" transform="translate(-15.771 -4.683)" fill="#e8e8e8"/>
  </g>
</svg>
